<?xml version="1.0" encoding="UTF-8"?> <svg xmlns="http://www.w3.org/2000/svg" width="100" height="100" viewBox="0 0 100 100"><rect x="9.5" y="31.88" width="69.9" height="47.35" rx="6.36" fill="#fff"></rect><polyline points="79.4 31.88 44.45 61.62 11.52 33.6" fill="none" stroke="#efc319" stroke-miterlimit="10" stroke-width="3.04"></polyline><line x1="77.83" y1="77.89" x2="51.58" y2="55.55" fill="none" stroke="#efc319" stroke-miterlimit="10" stroke-width="3.04"></line><line x1="11.52" y1="77.39" x2="36.4" y2="54.76" fill="none" stroke="#efc319" stroke-miterlimit="10" stroke-width="3.04"></line><circle cx="73.62" cy="37.65" r="16.88" fill="#004987"></circle><polygon points="72.35 24.71 72.35 24.71 72.36 24.71 72.35 24.71" fill="#fff"></polygon><path d="M71.45,44.52a2.18,2.18,0,1,0,4.35,0" fill="#fff"></path><path d="M81.79,40.49l-.8-.43c-.94-.5-1.14-1.73-1.36-2.78l-.93-4.36a5.17,5.17,0,0,0-3.9-4,1.83,1.83,0,0,0-.25-.06v-.27a.88.88,0,0,0-.27-.65.93.93,0,0,0-.66-.28h0A.92.92,0,0,0,73,28a.88.88,0,0,0-.27.65v.27a4.85,4.85,0,0,0-.75.19l-.06,0a4.78,4.78,0,0,0-.62.26c-.09,0-.16.1-.24.14s-.27.15-.39.24-.22.18-.33.27l-.24.2a4.49,4.49,0,0,0-.36.39l-.13.14a5.62,5.62,0,0,0-.35.5l-.07.11a5.85,5.85,0,0,0-.28.56.54.54,0,0,0,0,.11,5.84,5.84,0,0,0-.2.59l0,.11h0c0,.06,0,.12,0,.18l-.93,4.36c-.22,1-.42,2.28-1.36,2.78l-.8.43a1.43,1.43,0,0,0-.94,1.35v1.51H82.73V41.84A1.43,1.43,0,0,0,81.79,40.49Z" fill="#fff"></path></svg> 