<?xml version="1.0" encoding="UTF-8"?>
<svg version="1.1" xmlns="http://www.w3.org/2000/svg" width="100" height="100">
<path d="M0 0 C4.1451687 3.47037379 7.25904922 6.68894186 7.92578125 12.23046875 C8.11742472 17.92934038 7.32917841 22.70277054 3.6875 27.25 C2.15222656 28.02923828 2.15222656 28.02923828 0.5859375 28.82421875 C-2.45393133 30.88296207 -2.45393133 30.88296207 -2.85986328 33.4699707 C-3.05753831 36.24335654 -3.09645043 38.96983716 -3.0625 41.75 C-3.07017489 43.63546579 -3.08551006 45.52091963 -3.109375 47.40625 C-3.10260742 48.23962891 -3.09583984 49.07300781 -3.08886719 49.93164062 C-3.33867113 52.52131119 -3.86969696 54.08879378 -5.3125 56.25 C-8.50037165 57.31262388 -10.82234008 57.3959374 -14.17333984 57.42700195 C-15.37824066 57.43983719 -16.58314148 57.45267242 -17.82455444 57.46589661 C-19.12768585 57.47328354 -20.43081726 57.48067047 -21.7734375 57.48828125 C-22.43743183 57.49235678 -23.10142616 57.4964323 -23.78554153 57.50063133 C-27.29908179 57.52146779 -30.81258326 57.53578076 -34.32617188 57.54516602 C-37.95007214 57.55623462 -41.57335908 57.59064548 -45.19704247 57.63033772 C-47.98864872 57.65651003 -50.78010879 57.66485824 -53.57182693 57.66844749 C-55.55549111 57.67567039 -57.5390553 57.70210394 -59.52255249 57.72883606 C-60.73375763 57.72591049 -61.94496277 57.72298492 -63.19287109 57.7199707 C-64.78813126 57.72877007 -64.78813126 57.72877007 -66.4156189 57.73774719 C-70.08360211 57.12016972 -71.74181923 55.90682213 -74.3125 53.25 C-74.94741821 51.23937988 -74.94741821 51.23937988 -74.95947266 49.09570312 C-74.97523346 48.28806519 -74.99099426 47.48042725 -75.00723267 46.64831543 C-74.99711151 45.78468384 -74.98699036 44.92105225 -74.9765625 44.03125 C-74.98134613 43.13635864 -74.98612976 42.24146729 -74.99105835 41.31945801 C-74.99445651 39.42991373 -74.98525982 37.5403106 -74.96435547 35.65087891 C-74.9375871 32.7594081 -74.96410434 29.87181889 -74.99609375 26.98046875 C-74.99278963 25.1432206 -74.98638336 23.30597487 -74.9765625 21.46875 C-74.98668365 20.60511841 -74.99680481 19.74148682 -75.00723267 18.85168457 C-74.93088155 14.93919014 -74.78995881 12.88807691 -72.40307617 9.69824219 C-67.95646558 7.61456306 -64.05069208 7.75244025 -59.19921875 7.859375 C-58.22966751 7.86503479 -57.26011627 7.87069458 -56.26118469 7.87652588 C-53.17361454 7.89886294 -50.08721761 7.94905502 -47 8 C-44.90301159 8.02006842 -42.80600493 8.03831859 -40.70898438 8.0546875 C-35.57637293 8.09871913 -30.44463518 8.16772889 -25.3125 8.25 C-24.88710937 7.08017578 -24.88710937 7.08017578 -24.453125 5.88671875 C-22.61412869 1.63561426 -19.65212802 -0.11063208 -15.5625 -2.0625 C-9.84486671 -3.27199935 -5.17515316 -2.73404318 0 0 Z " fill="#90BEE6" transform="translate(83.3125,22.75)"/>
<path d="M0 0 C4.1451687 3.47037379 7.25904922 6.68894186 7.92578125 12.23046875 C8.11742472 17.92934038 7.32917841 22.70277054 3.6875 27.25 C2.15609375 28.02150391 2.15609375 28.02150391 0.59375 28.80859375 C-2.4576899 30.88947927 -2.4576899 30.88947927 -2.89208984 33.53442383 C-3.12846632 36.36965973 -3.19507642 39.15505376 -3.1875 42 C-3.208125 42.98355469 -3.22875 43.96710938 -3.25 44.98046875 C-3.2970684 47.40449158 -3.31694492 49.82561389 -3.3125 52.25 C-3.6425 52.25 -3.9725 52.25 -4.3125 52.25 C-4.3125 45.32 -4.3125 38.39 -4.3125 31.25 C-6.1275 31.394375 -7.9425 31.53875 -9.8125 31.6875 C-14.62262095 31.69887144 -17.25151119 31.20443143 -20.9375 28.0625 C-27.01687786 21.7308658 -26.3125 18.7218909 -26.3125 9.25 C-40.5025 9.25 -54.6925 9.25 -69.3125 9.25 C-69.3125 8.92 -69.3125 8.59 -69.3125 8.25 C-54.7925 8.25 -40.2725 8.25 -25.3125 8.25 C-24.6525 6.6 -23.9925 4.95 -23.3125 3.25 C-16.48320055 -3.38959669 -8.31799775 -4.3944139 0 0 Z " fill="#07467B" transform="translate(83.3125,22.75)"/>
<path d="M0 0 C0.9075 0.639375 1.815 1.27875 2.75 1.9375 C6.15355667 4.30346781 6.15355667 4.30346781 10 5 C12.75256794 3.14835964 12.75256794 3.14835964 15 1 C17.88055007 2.32401877 20.12346694 3.80175931 22.49609375 5.8984375 C23.13740234 6.46046875 23.77871094 7.0225 24.43945312 7.6015625 C25.09880859 8.18679687 25.75816406 8.77203125 26.4375 9.375 C27.74792979 10.52951828 29.05911197 11.6831832 30.37109375 12.8359375 C30.98968262 13.3834668 31.60827148 13.93099609 32.24560547 14.49511719 C33.76929595 15.80210691 35.36593663 17.02310628 36.97265625 18.2265625 C37.64167969 18.81179687 38.31070313 19.39703125 39 20 C39 20.99 39 21.98 39 23 C18.87 23 -1.26 23 -22 23 C-20.94640795 18.78563181 -20.36415322 18.02621712 -17.32421875 15.21484375 C-16.20563477 14.17166992 -16.20563477 14.17166992 -15.06445312 13.10742188 C-14.28005859 12.39134766 -13.49566406 11.67527344 -12.6875 10.9375 C-11.91470703 10.21755859 -11.14191406 9.49761719 -10.34570312 8.75585938 C-7.00182229 5.65924746 -3.68674185 2.68628316 0 0 Z " fill="#F0F0EE" transform="translate(36,57)"/>
<path d="M0 0 C14.19 0 28.38 0 43 0 C45 16 45 16 42.4921875 20.00390625 C40.75 21.36523438 40.75 21.36523438 38.875 22.5625 C38.27945313 23.02333984 37.68390625 23.48417969 37.0703125 23.95898438 C32.79839781 27.09203685 32.79839781 27.09203685 29.99438477 26.76879883 C27.82097302 25.93098837 26.51700881 24.99448692 24.78515625 23.4453125 C24.18711182 22.91784424 23.58906738 22.39037598 22.97290039 21.84692383 C22.34246826 21.27868896 21.71203613 20.7104541 21.0625 20.125 C19.72998787 18.94308393 18.39663763 17.76211216 17.0625 16.58203125 C16.38960937 15.98471191 15.71671875 15.38739258 15.0234375 14.77197266 C13.08104021 13.07096885 11.11300687 11.40905539 9.125 9.76171875 C8.52421631 9.26333496 7.92343262 8.76495117 7.30444336 8.25146484 C6.16021751 7.30625571 5.0126811 6.36503723 3.86157227 5.42822266 C2.53760627 4.32829957 1.26306745 3.16934913 0 2 C0 1.34 0 0.68 0 0 Z " fill="#FEFDFC" transform="translate(14,32)"/>
<path d="M0 0 C4.31520716 1.07880179 5.48149275 2.07770403 8.625 5.0625 C13.55634096 9.64160232 18.69787335 13.85982877 24 18 C20.12619163 22.86993052 15.86022614 27.14414687 11.3125 31.375 C10.74184814 31.91092773 10.17119629 32.44685547 9.58325195 32.99902344 C7.07871997 35.30249931 5.26494167 36.91168611 2 38 C2 38.66 2 39.32 2 40 C1.34 40 0.68 40 0 40 C0 26.8 0 13.6 0 0 Z " fill="#FEFEFB" transform="translate(10,36)"/>
<path d="M0 0 C2.98704569 0.49784095 4.39324263 1.26216175 7 3 C9.96842658 3.45915507 9.96842658 3.45915507 13.1875 3.625 C15.105625 3.74875 17.02375 3.8725 19 4 C19 11.26 19 18.52 19 26 C15.37859536 24.18929768 13.34212751 22.65071878 10.4375 19.9375 C5.1288698 15.06400342 -0.38465612 10.51576133 -6 6 C-4 4 -2 2 0 0 Z " fill="#FBFBFA" transform="translate(60,50)"/>
<path d="M0 0 C3.51213588 1.49265775 4.76534147 2.46363764 6.3125 6 C7 9 7 9 7 12 C7.99 12.33 8.98 12.66 10 13 C10 13.66 10 14.32 10 15 C4.06 15 -1.88 15 -8 15 C-4.858458 4.97698504 -4.858458 4.97698504 -2 1 C-1.34 0.67 -0.68 0.34 0 0 Z " fill="#F9FBFC" transform="translate(73,28)"/>
<path d="M0 0 C0.99 0.99 1.98 1.98 3 3 C0.69 4.65 -1.62 6.3 -4 8 C3.42115132 15.66852303 11.47224628 22.59388549 20 29 C19.67 29.99 19.34 30.98 19 32 C16 32 16 32 13.65234375 29.8125 C12.77707031 28.884375 11.90179688 27.95625 11 27 C8.24264282 24.43128298 5.45398958 21.90268971 2.6484375 19.38671875 C1.13048006 18.01876595 -0.37402828 16.63472557 -1.8359375 15.20703125 C-3.42463733 13.63081228 -3.42463733 13.63081228 -6 12 C-9.29409604 12.04632548 -9.29409604 12.04632548 -12 13 C-8.43679155 7.90789714 -4.95258714 3.77339973 0 0 Z " fill="#92C9F8" transform="translate(59,47)"/>
<path d="M0 0 C0.66 0.33 1.32 0.66 2 1 C1.071875 1.886875 0.14375 2.77375 -0.8125 3.6875 C-3.39028635 6.25922097 -5.25996251 8.78093065 -7 12 C-7.99 13.485 -7.99 13.485 -9 15 C-10.32 14.34 -11.64 13.68 -13 13 C-12.34 12.67 -11.68 12.34 -11 12 C-11 11.34 -11 10.68 -11 10 C-9.35546875 8.37890625 -9.35546875 8.37890625 -7.1875 6.5625 C-4.68897282 4.45536324 -2.2757944 2.34758602 0 0 Z " fill="#95C7F1" transform="translate(23,64)"/>
<path d="M0 0 C5.94 0 11.88 0 18 0 C18 0.33 18 0.66 18 1 C15.69 1 13.38 1 11 1 C10.67 1.99 10.34 2.98 10 4 C8.68 3.67 7.36 3.34 6 3 C6 2.34 6 1.68 6 1 C4.02 1 2.04 1 0 1 C0 0.67 0 0.34 0 0 Z " fill="#7099BB" transform="translate(65,43)"/>
<path d="M0 0 C0.66 0.33 1.32 0.66 2 1 C-0.64 3.64 -3.28 6.28 -6 9 C-6.33 8.34 -6.66 7.68 -7 7 C-2.25 1.125 -2.25 1.125 0 0 Z " fill="#002D54" transform="translate(65,22)"/>
</svg>
